<svg xmlns="http://www.w3.org/2000/svg"  style="display: none">
    <def>
    <!--Regular-->
    <svg id="navigation-arrow" viewBox="0 0 256 256"><rect width="256" height="256" fill="none"/><path d="M105.74,226.62a8,8,0,0,0,15.21-.27L144.5,149.8a8,8,0,0,1,5.3-5.3L226.35,121a8,8,0,0,0,.27-15.21l-176-65.28A8,8,0,0,0,40.46,50.63Z" fill="none" stroke="currentColor" stroke-linecap="round" stroke-linejoin="round" stroke-width="16"/></svg>
    <svg id="warning-circle" viewBox="0 0 256 256"><rect width="256" height="256" fill="none"/><circle cx="128" cy="128" r="96" fill="none" stroke="currentColor" stroke-miterlimit="10" stroke-width="16"/><line x1="128" y1="136" x2="128" y2="80" fill="none" stroke="currentColor" stroke-linecap="round" stroke-linejoin="round" stroke-width="16"/><circle cx="128" cy="172" r="12"/></svg>
    <svg id="bell-slash" viewBox="0 0 256 256"><rect width="256" height="256" fill="none"/><line x1="48" y1="40" x2="208" y2="216" fill="none" stroke="currentColor" stroke-linecap="round" stroke-linejoin="round" stroke-width="16"/><path d="M96,192a32,32,0,0,0,64,0" fill="none" stroke="currentColor" stroke-linecap="round" stroke-linejoin="round" stroke-width="16"/><path d="M92.48,41.36A72,72,0,0,1,200,104c0,29.1,5.48,53.56,11.07,67.8" fill="none" stroke="currentColor" stroke-linecap="round" stroke-linejoin="round" stroke-width="16"/><path d="M186.18,192H48a8,8,0,0,1-6.88-12C47.71,168.6,56,139.81,56,104A71.65,71.65,0,0,1,68.85,62.94" fill="none" stroke="currentColor" stroke-linecap="round" stroke-linejoin="round" stroke-width="16"/></svg>
    <svg id="bell" viewBox="0 0 256 256"><rect width="256" height="256" fill="none"/><path d="M96,192a32,32,0,0,0,64,0" fill="none" stroke="currentColor" stroke-linecap="round" stroke-linejoin="round" stroke-width="16"/><path d="M56,104a72,72,0,0,1,144,0c0,35.82,8.3,64.6,14.9,76A8,8,0,0,1,208,192H48a8,8,0,0,1-6.88-12C47.71,168.6,56,139.81,56,104Z" fill="none" stroke="currentColor" stroke-linecap="round" stroke-linejoin="round" stroke-width="16"/></svg>
    <svg id="check-circle" viewBox="0 0 256 256"><rect width="256" height="256" fill="none"/><polyline points="88 136 112 160 168 104" fill="none" stroke="currentColor" stroke-linecap="round" stroke-linejoin="round" stroke-width="16"/><circle cx="128" cy="128" r="96" fill="none" stroke="currentColor" stroke-linecap="round" stroke-linejoin="round" stroke-width="16"/></svg>
    <svg id="cloud-arrow-down" viewBox="0 0 256 256"><rect width="256" height="256" fill="none"/><path d="M96,208H72A56,56,0,1,1,85.92,97.74" fill="none" stroke="currentColor" stroke-linecap="round" stroke-linejoin="round" stroke-width="16"/><path d="M80,128a80,80,0,1,1,144,48" fill="none" stroke="currentColor" stroke-linecap="round" stroke-linejoin="round" stroke-width="16"/><polyline points="120 176 152 208 184 176" fill="none" stroke="currentColor" stroke-linecap="round" stroke-linejoin="round" stroke-width="16"/><line x1="152" y1="128" x2="152" y2="208" fill="none" stroke="currentColor" stroke-linecap="round" stroke-linejoin="round" stroke-width="16"/></svg>
    <svg id="cloud-slash" viewBox="0 0 256 256"><rect width="256" height="256" fill="none"/><line x1="48" y1="40" x2="208" y2="216" fill="none" stroke="currentColor" stroke-linecap="round" stroke-linejoin="round" stroke-width="16"/><path d="M193.89,200.49A79.66,79.66,0,0,1,160,208H72A56,56,0,1,1,85.92,97.74" fill="none" stroke="currentColor" stroke-linecap="round" stroke-linejoin="round" stroke-width="16"/><path d="M112.63,63.52A80,80,0,0,1,219.68,181.28" fill="none" stroke="currentColor" stroke-linecap="round" stroke-linejoin="round" stroke-width="16"/><path d="M80,128A79.68,79.68,0,0,1,91.07,87.37" fill="none" stroke="currentColor" stroke-linecap="round" stroke-linejoin="round" stroke-width="16"/></svg>
    <svg id="info" viewBox="0 0 256 256"><rect width="256" height="256" fill="none"/><circle cx="128" cy="128" r="96" fill="none" stroke="currentColor" stroke-linecap="round" stroke-linejoin="round" stroke-width="16"/><path d="M120,120a8,8,0,0,1,8,8v40a8,8,0,0,0,8,8" fill="none" stroke="currentColor" stroke-linecap="round" stroke-linejoin="round" stroke-width="16"/><circle cx="124" cy="84" r="12"/></svg>
    <svg id="arrow-line-down" viewBox="0 0 256 256"><rect width="256" height="256" fill="none"/><line x1="128" y1="32" x2="128" y2="184" fill="none" stroke="currentColor" stroke-linecap="round" stroke-linejoin="round" stroke-width="16"/><polyline points="56 112 128 184 200 112" fill="none" stroke="currentColor" stroke-linecap="round" stroke-linejoin="round" stroke-width="16"/><line x1="40" y1="216" x2="216" y2="216" fill="none" stroke="currentColor" stroke-linecap="round" stroke-linejoin="round" stroke-width="16"/></svg>
    <svg id="arrow-line-up" viewBox="0 0 256 256"><rect width="256" height="256" fill="none"/><line x1="128" y1="224" x2="128" y2="72" fill="none" stroke="currentColor" stroke-linecap="round" stroke-linejoin="round" stroke-width="16"/><polyline points="56 144 128 72 200 144" fill="none" stroke="currentColor" stroke-linecap="round" stroke-linejoin="round" stroke-width="16"/><line x1="40" y1="40" x2="216" y2="40" fill="none" stroke="currentColor" stroke-linecap="round" stroke-linejoin="round" stroke-width="16"/></svg>
    <svg id="trash" viewBox="0 0 256 256"><rect width="256" height="256" fill="none"/><line x1="216" y1="56" x2="40" y2="56" fill="none" stroke="currentColor" stroke-linecap="round" stroke-linejoin="round" stroke-width="16"/><line x1="104" y1="104" x2="104" y2="168" fill="none" stroke="currentColor" stroke-linecap="round" stroke-linejoin="round" stroke-width="16"/><line x1="152" y1="104" x2="152" y2="168" fill="none" stroke="currentColor" stroke-linecap="round" stroke-linejoin="round" stroke-width="16"/><path d="M200,56V208a8,8,0,0,1-8,8H64a8,8,0,0,1-8-8V56" fill="none" stroke="currentColor" stroke-linecap="round" stroke-linejoin="round" stroke-width="16"/><path d="M168,56V40a16,16,0,0,0-16-16H104A16,16,0,0,0,88,40V56" fill="none" stroke="currentColor" stroke-linecap="round" stroke-linejoin="round" stroke-width="16"/></svg>
    <svg id="x-circle" viewBox="0 0 256 256"><rect width="256" height="256" fill="none"/><line x1="160" y1="96" x2="96" y2="160" fill="none" stroke="currentColor" stroke-linecap="round" stroke-linejoin="round" stroke-width="16"/><line x1="96" y1="96" x2="160" y2="160" fill="none" stroke="currentColor" stroke-linecap="round" stroke-linejoin="round" stroke-width="16"/><circle cx="128" cy="128" r="96" fill="none" stroke="currentColor" stroke-linecap="round" stroke-linejoin="round" stroke-width="16"/></svg>
    <!--Bold-->
    <svg id="arrow-square-out-bold" viewBox="0 0 256 256"><rect width="256" height="256" fill="none"/><line x1="136" y1="120" x2="216" y2="40" fill="none" stroke="currentColor" stroke-linecap="round" stroke-linejoin="round" stroke-width="24"/><polyline points="216 104 215.99 40.01 152 40" fill="none" stroke="currentColor" stroke-linecap="round" stroke-linejoin="round" stroke-width="24"/><path d="M184,140v68a8,8,0,0,1-8,8H48a8,8,0,0,1-8-8V80a8,8,0,0,1,8-8h68" fill="none" stroke="currentColor" stroke-linecap="round" stroke-linejoin="round" stroke-width="24"/></svg>
    <!--Duotone-->
    <svg id="file-arrow-down-duotone" viewBox="0 0 256 256"><rect width="256" height="256" fill="none"/><polygon points="152 32 152 88 208 88 152 32" opacity="0.3"/><path d="M200,224H56a8,8,0,0,1-8-8V40a8,8,0,0,1,8-8h96l56,56V216A8,8,0,0,1,200,224Z" fill="none" stroke="currentColor" stroke-linecap="round" stroke-linejoin="round" stroke-width="16"/><polyline points="152 32 152 88 208 88" fill="none" stroke="currentColor" stroke-linecap="round" stroke-linejoin="round" stroke-width="16"/><line x1="128" y1="120" x2="128" y2="184" fill="none" stroke="currentColor" stroke-linecap="round" stroke-linejoin="round" stroke-width="16"/><polyline points="104 160 128 184 152 160" fill="none" stroke="currentColor" stroke-linecap="round" stroke-linejoin="round" stroke-width="16"/></svg>
    <svg id="file-arrow-up-duotone" viewBox="0 0 256 256"><rect width="256" height="256" fill="none"/><polygon points="152 32 152 88 208 88 152 32" opacity="0.3"/><path d="M200,224H56a8,8,0,0,1-8-8V40a8,8,0,0,1,8-8h96l56,56V216A8,8,0,0,1,200,224Z" fill="none" stroke="currentColor" stroke-linecap="round" stroke-linejoin="round" stroke-width="16"/><polyline points="152 32 152 88 208 88" fill="none" stroke="currentColor" stroke-linecap="round" stroke-linejoin="round" stroke-width="16"/><polyline points="104 144 128 120 152 144" fill="none" stroke="currentColor" stroke-linecap="round" stroke-linejoin="round" stroke-width="16"/><line x1="128" y1="184" x2="128" y2="120" fill="none" stroke="currentColor" stroke-linecap="round" stroke-linejoin="round" stroke-width="16"/></svg>
    <svg id="intersect-duotone" viewBox="0 0 256 256"><rect width="256" height="256" fill="none"/><path d="M88,160a73.37,73.37,0,0,0,.4,7.6,73.37,73.37,0,0,0,7.6.4,72,72,0,0,0,72-72,73.37,73.37,0,0,0-.4-7.6A73.37,73.37,0,0,0,160,88,72,72,0,0,0,88,160Z" opacity="0.3"/><circle cx="96" cy="96" r="72" fill="none" stroke="currentColor" stroke-linecap="round" stroke-linejoin="round" stroke-width="16"/><circle cx="160" cy="160" r="72" fill="none" stroke="currentColor" stroke-linecap="round" stroke-linejoin="round" stroke-width="16"/></svg>
    <svg id="unite-duotone" viewBox="0 0 256 256"><rect width="256" height="256" fill="none"/><path d="M167.6,88.4a72,72,0,1,0-79.2,79.2,72,72,0,1,0,79.2-79.2Z" opacity="0.3"/><circle cx="96" cy="96" r="72" fill="none" stroke="currentColor" stroke-linecap="round" stroke-linejoin="round" stroke-width="16"/><circle cx="160" cy="160" r="72" fill="none" stroke="currentColor" stroke-linecap="round" stroke-linejoin="round" stroke-width="16"/></svg>
    </def>
</svg>